#!OML:ASF F:\VICON\USERDATA\INSTALL\rory3\rory3.ASF
:FULLY-SPECIFIED
:DEGREES
99
root 0.43674925055106156 17.8109305798869 24.876427179903686 -2.1033253679962725 1.079803004635377 4.501989237853884
lfemur 14.275144723814904 -3.276168567396934 -31.370415653269475
ltibia 19.043872514792977
lfoot -17.35136966434628 -0.7846146875810236
ltoes -3.3829328061518913
rfemur -41.1670185185578 -0.1519940393346677 14.988048939322615
rtibia 44.87414967803427
rfoot -5.017166021014537 -14.356269095719899
rtoes -3.4658003391138
lowerback 10.925535653138251 -1.4781372364632084 -5.960531688869411
upperback 0.3624680860816521 -2.642579944090355 0.7210403820387675
thorax -5.634789024211761 -1.1251766479784275 4.668077821705673
lowerneck -16.67603049612468 -2.507513508080414 -2.6594040585657397
upperneck 19.70171269709473 -3.084985633559391 1.433394082179516
head 9.000813394578968 -1.4811550620941918 0.511069032372103
lclavicle -1.0273593451106696e-15 -8.613211625030751e-16
lhumerus -21.205655974993512 -7.162689157127559 81.5627425874715
lradius 37.0682379140824
lwrist 10.191209664714933
lhand -29.168413381159798 20.757518935318345
lfingers 7.125020000000057
lthumb -2.51409283196161 50.71810661651298
rclavicle -1.0273593451106696e-15 -8.613211625030751e-16
rhumerus -40.17285582935469 -22.10728563058845 -78.05006889574639
rradius 31.64847269855117
rwrist 4.14780729931056
rhand -17.40811114390753 30.04291776269063
rfingers 7.125020000000057
rthumb 8.842108280871884 -5.534730945320928
100
root 0.4170832149592503 17.749416538467287 25.35922818030921 -1.5422916644870988 1.9208515630510719 4.388200245580297
lfemur 16.214536085556116 -3.3148399732750455 -30.837648683989695
ltibia 16.863876254894212
lfoot -17.95466498545318 -1.364055169239922
ltoes -6.116409898219206
rfemur -39.689471673314635 1.512659879593216 14.998146562513487
rtibia 34.401085284685024
rfoot -4.774540260234486 -15.214681720593335
rtoes -4.38253857648426
lowerback 10.679518507990846 -1.6267706732619773 -6.021440517374045
upperback 0.33066789402257674 -2.839537181682271 0.858705494433637
thorax -5.478869478881754 -1.2241936460732474 4.844853467268008
lowerneck -16.765222341067393 -2.6035112469279724 -2.7143358125467296
upperneck 19.464962890029906 -3.2083358047159205 1.517886602917978
head 8.94893511491645 -1.5386371760389532 0.5351530254709057
lclavicle -1.0068715394289462e-15 -8.455060046840316e-16
lhumerus -20.426691989864253 -7.910260662449501 81.56369012987255
lradius 38.52365971577963
lwrist 10.85689897873121
lhand -29.505324276761005 20.777569939382616
lfingers 7.125020000000057
lthumb -2.839471237822904 50.73520365498335
rclavicle -1.006871539428946e-15 -8.455060046840316e-16
rhumerus -40.48028200037114 -22.4638585639323 -77.36718638511599
rradius 30.829145244570483
rwrist 4.7379870775057435
rhand -17.46317685755937 29.724208512496624
rfingers 7.125020000000057
rthumb 8.788901989320012 -5.383952497594883
101
root 0.38673059143398913 17.685327860857182 25.481674351422978 -1.1305176831466035 2.504155229548909 4.003262377077139
lfemur 17.887837113888565 -3.449586609113558 -29.83219134486683
ltibia 16.064576153411174
lfoot -17.39203600945555 -2.4309617908408643
ltoes -9.622341621883466
rfemur -38.475524786758264 2.9208092866849396 15.42297137709848
rtibia 27.083594562617925
rfoot -4.8386926935640995 -15.42556009854911
rtoes -4.115665510675628
lowerback 10.518727142670718 -1.7674463132747245 -5.898750421017945
upperback 0.30315814792419665 -2.998652131877321 1.0810738857282294
thorax -5.388739873911941 -1.3054275811688476 4.992233612355763
lowerneck -16.86224443275292 -2.6329515169704143 -2.71128041925005
upperneck 19.31594502729264 -3.241908581106453 1.5145668110582118
head 8.921676669941933 -1.5561156382618797 0.5308610524325625
lclavicle -1.0308114371551933e-15 -8.640677612466614e-16
lhumerus -19.770098020542335 -8.023243081130605 81.56670549351503
lradius 39.51512305187714
lwrist 11.391172419649493
lhand -29.890268793156498 20.5984198562055
lfingers 7.125020000000057
lthumb -3.2112300055976783 50.55162848683547
rclavicle -1.0308114371551933e-15 -8.640677612466612e-16
rhumerus -41.0274489109271 -23.272057325289087 -76.43097122864815
rradius 29.55811798911018
rwrist 5.8096304478212035
rhand -17.517386986471433 29.39084978827682
rfingers 7.125020000000057
rthumb 8.736464379208181 -5.325587434227828
102
root 0.3554702121797302 17.633277982258765 25.368416969419528 -0.9525127737925668 2.7037177544543973 3.2921328050720517
lfemur 18.905019332806194 -3.6090690266446996 -28.326523429281238
ltibia 17.110638469533818
lfoot -15.1284262951505 -4.092470259558733
ltoes -13.23736165799175
rfemur -37.363366502611164 3.92875712434413 16.392785153525487
rtibia 23.620924094744055
rfoot -5.098518679876277 -14.734748506365772
rtoes -2.796509009037571
lowerback 10.40731869697912 -1.8716664320582144 -5.520835699150141
upperback 0.27042651490576747 -3.080041513496539 1.3817680969101596
thorax -5.357494769246183 -1.349400190229348 5.06754835775355
lowerneck -16.931667854433098 -2.5853475421683783 -2.6561973320397305
upperneck 19.3327343647455 -3.1673006280809357 1.4024139733476522
head 8.936689825704951 -1.5272276146322723 0.49173481717578205
lclavicle -1.0991503532319253e-15 -9.170408161284638e-16
lhumerus -19.305204873341843 -7.470175157655605 81.520236489108
lradius 39.54900288480427
lwrist 11.48087888744806
lhand -30.22838422493365 20.361651781532906
lfingers 7.125020000000056
lthumb -3.5377574392407043 50.310376781640365
rclavicle -1.0991503532319255e-15 -9.17040816128464e-16
rhumerus -41.70090149945969 -24.56788655127821 -75.24529673623209
rradius 27.757744772111792
rwrist 7.251134376534238
rhand -17.54381736293984 29.18251403570267
rfingers 7.125020000000056
rthumb 8.7108640188729 -5.466579073127835
103
root 0.31036801600269337 17.599653437412222 24.88589091221184 -0.9498290188243043 2.6315632462967136 2.265738335658884
lfemur 18.99167107789389 -3.6741925717095407 -26.35376687369577
ltibia 20.80143581041271
lfoot -11.220166216147316 -6.14938604184331
ltoes -16.487842801635438
rfemur -36.39882639630207 4.518609198639588 17.971733463654235
rtibia 23.517643021233717
rfoot -6.284979121321252 -13.3477211196631
rtoes -0.6885764723537373
lowerback 10.439217542781726 -1.955923978930021 -4.876442255987338
upperback 0.251217562465928 -3.1008957531052106 1.7656117888329852
thorax -5.409464328221632 -1.366247144944797 5.081260950961863
lowerneck -16.987325873681012 -2.4768670146000358 -2.5543952047244125
upperneck 19.40941383624932 -3.0091479086491146 1.2338756157698825
head 8.963900710020633 -1.4616435218140047 0.43404145826583995
lclavicle -1.138978199707258e-15 -9.47930024157011e-16
lhumerus -19.072512913208193 -6.573735480980151 81.64819106078288
lradius 39.546045638250206
lwrist 11.434818129871037
lhand -30.407799482253605 20.087768845997253
lfingers 7.125020000000056
lthumb -3.7110330856361387 50.0325031961886
rclavicle -1.138978199707258e-15 -9.479300241570112e-16
rhumerus -42.50453638366889 -25.913399254357138 -74.05605735877916
rradius 26.21470679096044
rwrist 8.831143646959948
rhand -17.597134195468897 29.169227919778315
rfingers 7.125020000000056
rthumb 8.659359439568423 -5.589431014696831
104
root 0.2813909909009423 17.64452234661617 25.246987537322273 -1.3387193736063177 2.040884762181515 0.994962071517214
lfemur 18.169887612137508 -3.795574066373991 -24.118810539717224
ltibia 26.544523394813233
lfoot -4.431581997337861 -8.99830366069391
ltoes -18.241825944619638
rfemur -34.62630028872386 4.895862354875939 20.12239557963272
rtibia 23.706185207438352
rfoot -6.939222328244604 -11.110994441177205
rtoes 1.6306101499744792
lowerback 10.277581950375687 -2.003206000545383 -3.8912071887610384
upperback 0.20516316167097248 -3.023830469997785 2.2182439863312755
thorax -5.4046046621457755 -1.342125445307551 4.9584566297702795
lowerneck -16.88163372757056 -2.2916216865660206 -2.4401590552239103
upperneck 19.93872381225563 -2.729097374060042 0.8754546284042748
head 9.103168732037759 -1.3529415988210394 0.3239037075816727
lclavicle -1.1928455150721173e-15 -9.895917700050947e-16
lhumerus -19.238614131837444 -4.952534954240473 81.41714580573277
lradius 37.187779079015215
lwrist 10.410255059791048
lhand -30.413712256665363 20.186347445658583
lfingers 7.125020000000056
lthumb -3.7167346309061546 50.129337218901085
rclavicle -1.1928455150721173e-15 -9.895917700050951e-16
rhumerus -43.04922048860192 -27.959432903777707 -72.46423405036532
rradius 23.570312251430963
rwrist 10.627711573288288
rhand -17.551451659551542 29.090109741575645
rfingers 7.125020000000056
rthumb 8.703506573420274 -6.033346743956929
105
root 0.2595493265374695 17.76880588488843 25.838637015679872 -1.952228137623457 1.2433426713811018 -0.391806271539644
lfemur 15.961997176742933 -3.755821938940146 -21.844564512934202
ltibia 34.488877003313796
lfoot 3.9496719324417415 -12.189380411615485
ltoes -18.141121906109955
rfemur -31.888583776506742 5.149696632974974 22.657195935418784
rtibia 23.31650222191672
rfoot -7.102406409459846 -8.623187572193496
rtoes 3.691546738338899
lowerback 10.006300624505204 -2.004012186043418 -2.6396165628263075
upperback 0.13118621591688095 -2.8431178482083563 2.6756174894444062
thorax -5.3856155428562555 -1.276371217236698 4.677311193206009
lowerneck -16.652069425271026 -2.111749361772838 -2.338197041783053
upperneck 20.712429977585792 -2.4466267577774268 0.4404194481420034
head 9.29697198352376 -1.25141964856972 0.18968273836276583
lclavicle -1.2539665261847616e-15 -1.0368851009709165e-15
lhumerus -20.14931503796386 -3.2094789390544998 81.12653201106099
lradius 33.881742298343916
lwrist 8.934387066222772
lhand -30.17292079328602 20.591261184784017
lfingers 7.125020000000056
lthumb -3.4841840396054033 50.53495251441775
rclavicle -1.2539665261847612e-15 -1.0368851009709169e-15
rhumerus -43.15265731993756 -29.99054466814676 -70.94680447407595
rradius 21.065272020239355
rwrist 12.107001632479495
rhand -17.467182217688315 28.95364161032577
rfingers 7.125020000000056
rthumb 8.784953107330969 -6.521262214382231
106
root 0.23021855257314838 17.90316125688387 26.19281727445603 -2.549512103197886 0.624539000412752 -1.7109286837656028
lfemur 11.851207645760375 -3.353359098795435 -19.801766284870425
ltibia 43.76688517396164
lfoot 10.995775024728335 -14.701393357028277
ltoes -16.288654351668324
rfemur -28.18353618806211 5.238514282277434 25.166280197066136
rtibia 23.281612790807756
rfoot -7.125104558694215 -6.572544843362814
rtoes 5.598312641449811
lowerback 9.86864716363586 -1.882851932991644 -1.3098031211127743
upperback 0.06546523242930036 -2.4943758130297353 3.0104505522062874
thorax -5.431506081550831 -1.1349151928885832 4.188090238070034
lowerneck -16.419358227345754 -2.0558415853791514 -2.2581099821982242
upperneck 21.286567908665667 -2.3504508156501 0.15184726244253044
head 9.43223123282268 -1.2285633505414717 0.08809756185915857
lclavicle -1.3081883491409502e-15 -1.0788947547233153e-15
lhumerus -22.007606165629255 -2.065129391637015 81.25246134133099
lradius 31.930535890932322
lwrist 7.845488330131975
lhand -29.718890865368856 20.912568061177026
lfingers 7.125020000000056
lthumb -3.045696676401521 50.859029713206255
rclavicle -1.30818834914095e-15 -1.0788947547233153e-15
rhumerus -42.75792367009432 -30.74019049428476 -70.41344774134937
rradius 20.456590059373326
rwrist 12.499240020369982
rhand -17.431759280454653 28.727890609551686
rfingers 7.125020000000056
rthumb 8.819272776547104 -6.72300367851658
